# xmcd
#
# Track frame offsets:
#	150
#	12271
#	30407
#	51161
#	65198
#	77389
#	93474
#	105874
#	119926
#	137101
#	151673
#	168766
#	193864
#
# Disc length: 2599 seconds
#
# Revision: 1
# Processed by: cddbd v1.5.2PL0 Copyright (c) Steve Scherf et al.
# Submitted via: audiograbber 1.83.01
#
DISCID=a20a250d
DTITLE=Red Clay Ramblers - Chuckin' The Frizz
DYEAR=1979
DGENRE=Bluegrass
TTITLE0=Fourth Of July At A County Fair
TTITLE1=Thoroughly Africa Man
TTITLE2=Cabin Home
TTITLE3=Hot Buttered Rum
TTITLE4=Three Bells Road
TTITLE5=Baby Grand
TTITLE6=Play "Rocky Top"
TTITLE7=Santa Anna's March/Fine Times At Our House/Donegal Reel
TTITLE8=Aragon Mill
TTITLE9=Wahoo, Wahoo, Wahoo
TTITLE10=Tilly Take Your Time
TTITLE11=Paddy Won't You Drink Some Cider
TTITLE12=Data Track
EXTD=CD Flying Fish 18964 - original release as FF089 1979
EXTT0=
EXTT1=
EXTT2=
EXTT3=
EXTT4=
EXTT5=
EXTT6=
EXTT7=
EXTT8=
EXTT9=
EXTT10=
EXTT11=
EXTT12=
PLAYORDER=
